<!-- icon666.com - MILLIONS vector ICONS FREE --><svg version="1.1" id="Capa_1" xmlns="http://www.w3.org/2000/svg" xmlns:xlink="http://www.w3.org/1999/xlink" width="25px" height="50px" x="0px" y="0px" viewBox="0 0 512 512" style="enable-background:new 0 0 512 512;" xml:space="preserve"><g><g><g><path d="M488,160h-29.605c-10.975-23.121-25.632-43.79-43.087-61.426c-0.114-0.123-0.23-0.244-0.352-0.36 C373.609,56.625,316.689,32,256,32c-60.654,0-117.539,24.597-158.878,66.143c-0.179,0.166-0.35,0.34-0.513,0.522 C79.195,116.282,64.569,136.919,53.613,160H24c-13.232,0-24,10.768-24,24v144c0,13.232,10.768,24,24,24h29.613 c10.956,23.081,25.582,43.719,42.996,61.335c0.163,0.182,0.333,0.356,0.512,0.522C138.46,455.403,195.345,480,256,480 c60.683,0,117.597-24.62,158.944-66.202c0.13-0.124,0.255-0.253,0.377-0.385c17.449-17.633,32.103-38.298,43.075-61.413H488 c13.232,0,24-10.768,24-24V184C512,170.768,501.232,160,488,160z M163.984,160c4.686-17.787,10.558-33.896,17.359-48H248v48 H163.984z M322.038,96H264V48.637C285.489,52.026,305.716,68.949,322.038,96z M248,48.637V96h-58.032 C206.29,68.949,226.516,52.027,248,48.637z M264,112h66.662c6.8,14.104,12.671,30.213,17.355,48H264V112z M364.541,160 c-4.389-17.49-9.915-33.573-16.377-48h57.897c13.553,14.1,25.209,30.211,34.471,48H364.541z M388.833,96h-48.579 c-9.124-16.715-19.64-30.579-31.125-41.081C338.484,62.695,365.672,76.793,388.833,96z M171.752,96h-48.578 c23.16-19.207,50.346-33.306,79.7-41.081C191.39,65.421,180.875,79.285,171.752,96z M105.948,112h57.895 c-6.461,14.427-11.988,30.51-16.376,48H71.48C80.742,142.211,92.397,126.1,105.948,112z M348.024,352 c-4.686,17.787-10.558,33.896-17.359,48H264v-48H348.024z M189.968,416H248v47.363C226.516,459.973,206.29,443.05,189.968,416z M264,463.363V416h58.04C305.716,443.051,285.489,459.974,264,463.363z M248,400h-66.657c-6.801-14.104-12.673-30.213-17.359-48 H248V400z M147.467,352c4.388,17.49,9.915,33.573,16.376,48h-57.895c-13.551-14.1-25.206-30.211-34.468-48H147.467z M123.174,416 h48.578c9.123,16.715,19.638,30.579,31.122,41.081C173.52,449.306,146.334,435.207,123.174,416z M340.254,416h48.577 c-23.16,19.207-50.348,33.305-79.702,41.081C320.614,446.579,331.13,432.715,340.254,416z M406.058,400h-57.894 c6.462-14.427,11.989-30.51,16.377-48h75.987C431.266,369.789,419.61,385.9,406.058,400z M496,328c0,4.408-3.584,8-8,8h-34.54 c-0.023,0-0.045,0-0.068,0H58.655c-0.041,0-0.082-0.001-0.123,0H24c-4.416,0-8-3.592-8-8V184c0-4.408,3.584-8,8-8h34.546 c0.023,0,0.045,0,0.068,0H488c4.416,0,8,3.592,8,8V328z" fill="#000000" style="fill: rgb(79, 78, 78);"></path><path d="M169.304,200.112c-4.376-0.72-8.48,2.224-9.2,6.576l-11.952,71.736l-29-58c-2.72-5.424-11.592-5.424-14.312,0l-29,58 l-11.952-71.736c-0.72-4.36-4.832-7.288-9.2-6.576c-4.36,0.728-7.304,4.848-6.576,9.208l16,96 c0.568,3.416,3.272,6.08,6.704,6.592c3.456,0.536,6.808-1.24,8.344-4.336L112,241.888l32.84,65.688 C146.208,310.32,149,312,152,312c0.392,0,0.792-0.024,1.176-0.088c3.432-0.512,6.136-3.176,6.704-6.592l16-96 C176.608,204.96,173.664,200.84,169.304,200.112z" fill="#000000" style="fill: rgb(79, 78, 78);"></path><path d="M313.304,200.112c-4.352-0.72-8.48,2.224-9.2,6.576l-11.952,71.736l-29-58c-2.72-5.424-11.592-5.424-14.312,0l-29,58 l-11.952-71.736c-0.72-4.36-4.84-7.288-9.2-6.576c-4.36,0.728-7.304,4.848-6.576,9.208l16,96c0.568,3.416,3.272,6.08,6.704,6.592 c3.456,0.536,6.808-1.24,8.344-4.336L256,241.888l32.84,65.688C290.208,310.32,293,312,296,312c0.392,0,0.792-0.024,1.176-0.088 c3.432-0.512,6.136-3.176,6.704-6.592l16-96C320.608,204.96,317.664,200.84,313.304,200.112z" fill="#000000" style="fill: rgb(79, 78, 78);"></path><path d="M457.304,200.112c-4.352-0.72-8.48,2.224-9.2,6.576l-11.952,71.736l-29-58c-2.72-5.424-11.592-5.424-14.312,0l-29,58 l-11.952-71.736c-0.72-4.36-4.848-7.288-9.2-6.576c-4.36,0.728-7.304,4.848-6.576,9.208l16,96 c0.568,3.416,3.272,6.08,6.704,6.592c3.456,0.536,6.808-1.24,8.344-4.336L400,241.888l32.84,65.688 C434.208,310.32,437,312,440,312c0.392,0,0.792-0.024,1.176-0.088c3.432-0.512,6.136-3.176,6.704-6.592l16-96 C464.608,204.96,461.664,200.84,457.304,200.112z" fill="#000000" style="fill: rgb(79, 78, 78);"></path></g></g></g></svg>